Coordinates
version=1
nRows=60
nColumns=12
inDegrees=yes

Units are S.I. units (second, meters, Newtons, ...)
Angles are in degrees

endheader
time	SC_y	SC_z	SC_x	AC_y	AC_z	AC_x	GH_y	GH_z	GH_yy	EL_x	PS_y
       0.0              -16.92          3.048          50.42          40.17          2.871           4.82         -19.37          84.31          148.5          34.73          142.8
   0.02493              -16.92          3.052          50.43          40.17           2.87          4.821         -19.36          84.31          148.5          34.73          142.8
   0.04986              -16.92          3.056          50.43          40.17          2.869          4.822         -19.36          84.31          148.5          34.72          142.8
   0.07479              -16.92          3.059          50.43          40.17          2.868          4.824         -19.36          84.31          148.5          34.72          142.7
   0.09972              -16.92          3.064          50.44          40.17          2.868          4.825         -19.35          84.31          148.5          34.72          142.7
    0.1246              -16.92          3.068          50.44          40.17          2.867          4.827         -19.35          84.31          148.5          34.71          142.7
    0.1496              -16.92          3.073          50.45          40.17          2.866          4.828         -19.35          84.31          148.5          34.71          142.7
    0.1745              -16.92          3.078          50.45          40.17          2.864           4.83         -19.34          84.31          148.5           34.7          142.7
    0.1994              -16.92          3.083          50.46          40.17          2.863          4.831         -19.34           84.3          148.5           34.7          142.7
    0.2244              -16.92          3.089          50.47          40.17          2.862          4.833         -19.33           84.3          148.5          34.69          142.7
    0.2493              -16.92          3.095          50.47          40.18          2.861          4.835         -19.33           84.3          148.5          34.68          142.7
    0.2742              -16.92          3.102          50.48          40.18          2.859          4.837         -19.32           84.3          148.5          34.68          142.7
    0.2992              -16.92          3.109          50.49          40.18          2.858           4.84         -19.31           84.3          148.5          34.67          142.7
    0.3241              -16.92          3.117           50.5          40.18          2.856          4.842         -19.31           84.3          148.5          34.66          142.6
     0.349              -16.92          3.125          50.51          40.18          2.854          4.845          -19.3           84.3          148.5          34.65          142.6
    0.3739              -16.92          3.134          50.52          40.18          2.852          4.848         -19.29          84.29          148.5          34.64          142.6
    0.3989              -16.92          3.144          50.53          40.18           2.85          4.851         -19.28          84.29          148.5          34.63          142.6
    0.4238              -16.92          3.155          50.54          40.18          2.847          4.855         -19.27          84.29          148.5          34.62          142.6
    0.4487              -16.92          3.167          50.55          40.19          2.845          4.858         -19.26          84.29          148.5          34.61          142.6
    0.4737              -16.92           3.18          50.57          40.19          2.842          4.863         -19.25          84.29          148.5          34.59          142.5
    0.4986              -16.93          3.194          50.58          40.19          2.839          4.867         -19.24          84.28          148.5          34.58          142.5
    0.5235              -16.93           3.21           50.6          40.19          2.835          4.872         -19.23          84.28          148.5          34.56          142.5
    0.5484              -16.93          3.227          50.62          40.19          2.832          4.878         -19.21          84.28          148.5          34.54          142.4
    0.5734              -16.93          3.246          50.64           40.2          2.827          4.884          -19.2          84.27          148.4          34.52          142.4
    0.5983              -16.93          3.267          50.66           40.2          2.823          4.891         -19.18          84.27          148.4           34.5          142.4
    0.6232              -16.93          3.291          50.69           40.2          2.818          4.899         -19.16          84.27          148.4          34.47          142.3
    0.6482              -16.93          3.318          50.72          40.21          2.812          4.907         -19.13          84.26          148.4          34.44          142.3
    0.6731              -16.94          3.348          50.75          40.21          2.805          4.917         -19.11          84.25          148.4          34.41          142.2
     0.698              -16.94          3.382          50.79          40.21          2.798          4.928         -19.08          84.25          148.4          34.38          142.2
    0.7229              -16.94           3.42          50.83          40.22          2.789           4.94         -19.05          84.24          148.4          34.34          142.1
    0.7479              -16.94          3.464          50.88          40.23           2.78          4.954         -19.01          84.23          148.3          34.29          142.0
    0.7728              -16.95          3.514          50.93          40.23          2.769           4.97         -18.97          84.22          148.3          34.24          141.9
    0.7977              -16.95          3.572           51.0          40.24          2.756          4.989         -18.92          84.21          148.3          34.17          141.8
    0.8227              -16.96           3.64          51.07          40.25          2.741          5.011         -18.86           84.2          148.2           34.1          141.7
    0.8476              -16.96          3.718          51.16          40.26          2.724          5.036         -18.79          84.19          148.2          34.02          141.6
    0.8725              -16.97          3.811          51.26          40.27          2.703          5.066         -18.71          84.17          148.2          33.92          141.4
    0.8975              -16.98          3.922          51.38          40.29          2.679          5.102         -18.62          84.15          148.1           33.8          141.2
    0.9224              -16.98          4.055          51.52          40.31           2.65          5.145          -18.5          84.12          148.0          33.66          141.0
    0.9473              -16.99          4.215           51.7          40.33          2.615          5.197         -18.36          84.09          148.0          33.49          140.7
    0.9722              -17.01          4.411          51.91          40.35          2.572           5.26          -18.2          84.05          147.9          33.28          140.4
    0.9972              -17.02          4.653          52.18          40.39          2.519          5.338         -17.99          84.01          147.7          33.02          139.9
     1.022              -17.05          4.954          52.51          40.43          2.453          5.435         -17.73          83.95          147.6           32.7          139.4
     1.047              -17.07          5.334          52.92          40.48           2.37          5.558          -17.4          83.88          147.4          32.29          138.7
     1.072               -17.1          5.816          53.45          40.54          2.264          5.713         -16.99          83.79          147.1          31.78          137.9
     1.097              -17.15          6.434          54.13          40.63          2.128          5.913         -16.46          83.67          146.8          31.12          136.8
     1.122               -17.2          7.227           55.0          40.73          1.954          6.169         -15.78          83.53          146.4          30.27          135.4
     1.147              -17.27           8.24          56.11          40.87          1.732          6.495         -14.91          83.34          145.9          29.19          133.6
     1.172              -17.35          9.514           57.5          41.04          1.453          6.906         -13.81           83.1          145.3          27.84          131.3
     1.197              -17.46          11.07           59.2          41.25          1.112          7.407         -12.48           82.8          144.5          26.18          128.6
     1.222              -17.58          12.86          61.17           41.5         0.7176          7.988         -10.94          82.47          143.6          24.26          125.4
     1.246              -17.71          14.81           63.3          41.76         0.2903          8.616         -9.265           82.1          142.6          22.18          121.9
     1.271              -17.85          16.76          65.44          42.03         -0.137          9.245         -7.593          81.73          141.6          20.11          118.5
     1.296              -17.97          18.56          67.41          42.27        -0.5316          9.825         -6.048           81.4          140.7          18.19          115.3
     1.321              -18.07          20.11           69.1          42.48         -0.872          10.33         -4.716           81.1          139.9          16.53          112.6
     1.346              -18.16          21.38           70.5          42.65         -1.151          10.74         -3.622          80.87          139.3          15.17          110.3
     1.371              -18.23           22.4          71.61          42.79         -1.374          11.06         -2.752          80.68          138.8          14.09          108.5
     1.396              -18.28          23.19          72.48           42.9         -1.547          11.32         -2.072          80.53          138.3          13.25          107.1
     1.421              -18.32          23.81          73.15          42.98         -1.683          11.52         -1.541          80.41          138.0          12.59          106.0
     1.446              -18.36          24.29          73.68          43.04         -1.789          11.67         -1.127          80.32          137.8          12.07          105.1
     1.471              -18.38          24.67           74.1           43.1         -1.872           11.8        -0.8005          80.25          137.6          11.67          104.5
